<?xml version="1.0" standalone="no"?><!DOCTYPE svg PUBLIC "-//W3C//DTD SVG 1.1//EN" "http://www.w3.org/Graphics/SVG/1.1/DTD/svg11.dtd"><svg t="1653730317950" class="icon" viewBox="0 0 1024 1024" version="1.1" xmlns="http://www.w3.org/2000/svg" p-id="16986" xmlns:xlink="http://www.w3.org/1999/xlink" width="200" height="200"><defs><style type="text/css"></style></defs><path d="M86.231579 338.938012C47.906433 287.438596 62.877193 211.985965 120.364912 169.469006S255.101754 134.736842 293.426901 185.637427s23.354386 126.952047-34.133334 168.870175-134.736842 35.330994-173.061988-15.56959zM937.169591 335.345029c36.528655-52.697076 19.162573-127.550877-39.522807-167.672514s-135.934503-30.540351-172.463158 22.156725-19.162573 127.550877 39.522807 167.672514 135.934503 30.540351 172.463158-22.156725z" fill="#232323" p-id="16987"></path><path d="M510.802339 840.757895c-31.139181-0.59883-76.051462-1.796491-128.748538-7.185965-26.348538-2.395322-54.493567-6.587135-84.435088-11.976608-31.139181-5.389474-61.679532-13.174269-91.621052-22.755556-30.540351-9.581287-59.883041-23.354386-86.231579-41.918129-11.976608-8.383626-22.156725-19.162573-30.540351-31.738011-1.796491-2.994152-2.994152-5.988304-4.790643-8.982456l-3.592983-9.581287c-1.197661-2.994152-1.796491-6.587135-2.395321-9.581287s-0.59883-6.587135-1.197661-9.581286v-26.348538c0-8.982456 0.59883-18.563743 1.197661-27.546199s1.197661-18.563743 1.796491-27.546199c0.59883-4.790643 0.59883-8.982456 1.197661-13.773099l1.796491-13.7731c4.191813-35.929825 11.377778-71.859649 21.557895-106.591812 9.581287-33.534503 23.354386-65.871345 40.121637-96.411696 16.168421-28.74386 35.929825-55.092398 58.68538-79.045614 40.121637-41.319298 89.225731-73.05731 143.120468-92.818714 21.557895-7.784795 43.71462-14.97076 65.871345-20.360234 10.180117-2.395322 19.162573-4.790643 28.145029-5.988304s16.767251-3.592982 23.953217-4.790643 13.773099-2.395322 19.761403-3.592983 10.778947-1.796491 14.37193-2.994152c7.784795-1.796491 11.976608-4.191813 11.976608-6.587134s-4.191813-3.592982-12.575438-5.389474c-4.191813-0.59883-8.982456-1.796491-14.970761-2.395321s-12.575439-0.59883-20.360234-1.197661c-43.115789-0.59883-86.830409 4.790643-128.149707 16.767251-28.74386 8.383626-56.888889 19.162573-83.237427 33.534503-29.94152 16.168421-58.08655 36.528655-83.237427 59.883041-26.947368 25.749708-50.900585 55.092398-70.063158 87.42924C77.847953 381.454971 61.679532 417.384795 49.702924 455.111111S28.74386 531.761404 23.354386 571.284211l-1.796491 14.97076c-0.59883 4.790643-1.197661 10.180117-1.796491 14.97076-1.197661 10.180117-1.796491 19.761404-2.395322 29.34269s-1.197661 19.761404-1.796491 29.941521l-0.598831 14.97076v11.377778c0 1.197661 0 2.994152 0.598831 4.790643 0.59883 5.988304 1.197661 11.976608 2.395321 18.563742 1.197661 5.988304 2.395322 11.976608 4.191813 17.366082s4.191813 11.377778 6.587135 16.767252 5.389474 10.778947 8.383625 15.56959c11.976608 18.563743 27.546199 35.330994 45.511111 48.505264 31.738012 22.755556 67.069006 40.121637 104.196492 51.499415 32.935673 10.778947 65.871345 18.563743 100.004678 24.552047 31.738012 5.988304 61.679532 9.581287 89.225731 11.976608 44.912281 4.191813 89.824561 6.587135 134.736842 5.988304 44.912281 0 89.824561-1.796491 134.736842-6.587135 27.546199-2.395322 57.487719-6.587135 89.225731-12.575438 34.133333-5.988304 67.069006-14.37193 100.004679-24.552047 17.964912-5.988304 35.330994-12.575439 52.697076-20.959064 18.563743-8.383626 35.929825-19.162573 52.098245-31.139182 17.964912-13.174269 33.534503-29.94152 45.511111-48.505263 2.994152-5.389474 5.988304-10.180117 8.383626-15.56959s4.191813-11.377778 6.587135-16.767252 2.994152-11.976608 4.191812-17.366082 1.197661-11.976608 1.796492-18.563742v-15.569591l-0.598831-14.97076c0-10.180117-1.197661-19.761404-1.796491-29.941521s-1.796491-19.761404-2.395322-29.34269-2.395322-19.761404-3.592982-29.34269c-5.389474-39.522807-14.37193-78.446784-26.348538-116.173099-11.976608-37.127485-28.74386-73.05731-49.104094-106.591813-19.761404-31.738012-43.115789-61.080702-70.063157-86.83041-25.150877-23.354386-52.697076-43.71462-83.237427-59.88304-26.348538-14.37193-54.493567-25.150877-83.237427-33.534503-41.918129-11.976608-85.033918-17.366082-128.748538-16.767252-7.784795 0-14.37193 0.59883-20.360234 1.197661s-10.778947 1.197661-14.97076 2.395322c-7.784795 1.796491-12.575439 3.592982-12.575439 5.389473s4.191813 4.191813 11.976608 6.587135c4.191813 1.197661 8.982456 1.796491 14.37193 2.994152s11.976608 2.395322 19.761403 3.592982 15.569591 2.994152 23.953217 4.790644 17.964912 4.191813 28.145029 5.988304c22.156725 5.389474 44.31345 11.976608 65.871345 20.360234 86.231579 31.139181 158.091228 92.219883 202.404678 171.864327 17.366082 30.540351 30.540351 62.877193 40.720468 96.411696 10.180117 34.732164 17.964912 70.661988 22.156725 106.591813 1.197661 8.982456 2.395322 17.964912 2.994153 27.546199s1.796491 18.563743 1.796491 27.546199 1.197661 18.563743 1.197661 27.546198v26.348538c-0.59883 2.994152-0.59883 6.587135-1.197661 9.581287s-1.796491 6.587135-2.395322 9.581286-2.395322 5.988304-3.592982 9.581287-3.592982 5.988304-4.790644 8.982456c-8.383626 11.976608-18.563743 22.755556-30.540351 31.738012-26.348538 18.563743-55.691228 32.336842-86.231578 41.918128-29.94152 9.581287-60.481871 17.366082-91.621053 22.755556-29.94152 5.389474-58.08655 9.581287-84.435088 11.976608-53.295906 4.191813-97.609357 5.988304-128.748538 6.587135z" fill="#202020" p-id="16988"></path><path d="M509.604678 158.690058c-275.461988 0-464.093567 170.067836-464.093567 526.970761 5.988304 167.672515 358.699415 185.038596 464.093567 185.038596s459.901754-17.366082 465.890059-185.038596c0-356.304094-191.026901-526.97076-465.890059-526.970761z" fill="#FFFFFF" p-id="16989"></path><path d="M546.732164 758.119298c-14.97076 1.197661-29.34269-8.982456-33.534503-23.354386 0-0.59883 0-0.59883-0.598831-1.197661l-1.19766-1.796491c-1.197661 0-2.994152 0.59883-4.191813 0.598831h-2.395322v1.19766c-2.994152 10.778947-11.976608 19.761404-22.755555 22.755556-5.389474 1.197661-11.377778 1.197661-16.767252 0v3.592982c0 34.133333 17.964912 62.278363 40.720468 62.278363s40.720468-28.145029 40.720468-62.278363v-1.796491z" fill="#FEAFB4" p-id="16990"></path><path d="M506.011696 828.182456c-25.150877 0-44.912281-29.34269-44.912281-66.470175v-3.592983c0-2.395322 1.796491-4.790643 4.790643-4.790643s4.790643 1.796491 4.790644 4.790643v3.592983c0 31.738012 16.168421 57.487719 35.929824 57.487719s35.929825-25.749708 35.929825-57.487719v-1.796492c0-2.395322 1.796491-4.790643 4.790643-4.790643s4.790643 1.796491 4.790643 4.790643v1.796492c-1.197661 37.726316-20.959064 66.470175-46.109941 66.470175z" fill="#232323" p-id="16991"></path><path d="M476.070175 761.11345c-16.168421 0-32.336842-11.377778-32.336842-33.534503 0-2.395322 1.796491-4.790643 4.790644-4.790643s4.790643 1.796491 4.790643 4.790643c0 16.767251 11.976608 24.552047 23.354386 24.552047 7.185965 0 14.37193-2.994152 19.761403-8.383626 5.988304-6.587135 9.581287-16.168421 9.581287-27.546198 0-2.395322 1.796491-4.790643 4.790643-4.790644s4.790643 1.796491 4.790643 4.790644c0 13.773099-4.191813 25.749708-11.976608 33.534503-8.383626 7.185965-17.964912 11.377778-27.546199 11.377777z" fill="#232323" p-id="16992"></path><path d="M544.336842 761.712281c-6.587135 0-13.174269-1.796491-19.162573-5.389474-7.784795-4.191813-20.360234-15.569591-19.761404-40.121637 0-2.395322 1.796491-4.191813 4.790644-4.191813 2.395322 0 4.191813 1.796491 4.191813 4.790643 0 14.97076 5.389474 26.348538 15.56959 32.336842 8.383626 4.790643 19.162573 5.389474 27.546199 0.598831 7.185965-4.191813 11.377778-11.976608 11.377778-21.557895 0-2.395322 1.796491-4.790643 4.790643-4.790643s4.790643 1.796491 4.790643 4.790643c0 12.575439-5.988304 23.354386-16.168421 29.34269-5.988304 2.994152-11.976608 4.191813-17.964912 4.191813z" fill="#232323" p-id="16993"></path><path d="M491.040936 679.672515h38.923976c11.377778 0 17.964912 16.168421 8.982456 21.557894l-20.959064 12.575439c-4.790643 3.592982-11.976608 3.592982-16.767251 0l-19.162573-12.575439c-8.982456-5.988304-2.395322-21.557895 8.982456-21.557894zM350.91462 661.707602c1.796491 85.632749-74.853801 136.533333-149.707602 136.533334-63.476023 0-95.214035-65.871345-79.644445-137.132164 17.964912-82.039766 77.249123-145.515789 140.126316-145.51579s87.42924 62.278363 89.225731 146.11462z" fill="#232323" p-id="16994"></path><path d="M251.615253 715.697793a79.644444 79.644444 0 1 0 0.194608-159.28877 79.644444 79.644444 0 1 0-0.194608 159.28877Z" fill="#FFFFFF" p-id="16995"></path><path d="M251.63208 701.924704a65.871345 65.871345 0 1 0 0.160954-131.742592 65.871345 65.871345 0 1 0-0.160954 131.742592Z" fill="#232323" p-id="16996"></path><path d="M239.413737 654.773286a38.325146 38.325146 0 1 0 0.093646-76.650235 38.325146 38.325146 0 1 0-0.093646 76.650235Z" fill="#FFFFFF" p-id="16997"></path><path d="M289.834888 675.139212a13.773099 13.773099 0 1 0 0.033654-27.546179 13.773099 13.773099 0 1 0-0.033654 27.546179Z" fill="#FFFFFF" p-id="16998"></path><path d="M251.761162 688.205911a13.773099 13.773099 0 1 0 0.033655-27.546179 13.773099 13.773099 0 1 0-0.033655 27.546179Z" fill="#FFFFFF" p-id="16999"></path><path d="M665.300585 661.707602c-1.796491 85.632749 74.853801 136.533333 149.707602 136.533334 63.476023 0 95.214035-65.871345 79.644445-137.132164-17.964912-82.039766-77.249123-145.515789-140.126316-145.51579s-87.42924 62.278363-89.225731 146.11462z" fill="#232323" p-id="17000"></path><path d="M683.684678 637.490901a79.644444 79.644444 0 1 0 159.288889 0 79.644444 79.644444 0 1 0-159.288889 0Z" fill="#FFFFFF" p-id="17001"></path><path d="M764.009182 702.410056a65.871345 65.871345 0 1 0 0.160954-131.742592 65.871345 65.871345 0 1 0-0.160954 131.742592Z" fill="#232323" p-id="17002"></path><path d="M751.796528 655.743398a38.325146 38.325146 0 1 0 0.093646-76.650235 38.325146 38.325146 0 1 0-0.093646 76.650235Z" fill="#FFFFFF" p-id="17003"></path><path d="M801.972451 675.276943a13.773099 13.773099 0 1 0 0.033654-27.546179 13.773099 13.773099 0 1 0-0.033654 27.546179Z" fill="#FFFFFF" p-id="17004"></path><path d="M763.534178 688.097683a13.773099 13.773099 0 1 0 0.033654-27.546179 13.773099 13.773099 0 1 0-0.033654 27.546179Z" fill="#FFFFFF" p-id="17005"></path></svg>